<?xml version="1.0" encoding="UTF-8" standalone="no"?>
<!-- Created with Inkscape (http://www.inkscape.org/) -->

<svg
   xmlns:dc="http://purl.org/dc/elements/1.1/"
   xmlns:cc="http://creativecommons.org/ns#"
   xmlns:rdf="http://www.w3.org/1999/02/22-rdf-syntax-ns#"
   xmlns:svg="http://www.w3.org/2000/svg"
   xmlns="http://www.w3.org/2000/svg"
   xmlns:sodipodi="http://sodipodi.sourceforge.net/DTD/sodipodi-0.dtd"
   xmlns:inkscape="http://www.inkscape.org/namespaces/inkscape"
   width="210mm"
   height="297mm"
   viewBox="0 0 744.09448819 1052.3622047"
   id="svg3521"
   version="1.1"
   inkscape:version="0.91 r13725"
   sodipodi:docname="base2.svg">
  <defs
     id="defs3523" />
  <sodipodi:namedview
     id="base"
     pagecolor="#ffffff"
     bordercolor="#666666"
     borderopacity="1.0"
     inkscape:pageopacity="0.0"
     inkscape:pageshadow="2"
     inkscape:zoom="1.4"
     inkscape:cx="201.74735"
     inkscape:cy="571.83953"
     inkscape:document-units="px"
     inkscape:current-layer="layer1"
     showgrid="false"
     inkscape:window-width="2560"
     inkscape:window-height="1368"
     inkscape:window-x="0"
     inkscape:window-y="35"
     inkscape:window-maximized="1" />
  <metadata
     id="metadata3526">
    <rdf:RDF>
      <cc:Work
         rdf:about="">
        <dc:format>image/svg+xml</dc:format>
        <dc:type
           rdf:resource="http://purl.org/dc/dcmitype/StillImage" />
        <dc:title></dc:title>
      </cc:Work>
    </rdf:RDF>
  </metadata>
  <g
     inkscape:label="Layer 1"
     inkscape:groupmode="layer"
     id="layer1">
    <path
       style="color:#000000;font-style:normal;font-variant:normal;font-weight:normal;font-stretch:normal;font-size:medium;line-height:normal;font-family:sans-serif;text-indent:0;text-align:start;text-decoration:none;text-decoration-line:none;text-decoration-style:solid;text-decoration-color:#000000;letter-spacing:normal;word-spacing:normal;text-transform:none;direction:ltr;block-progression:tb;writing-mode:lr-tb;baseline-shift:baseline;text-anchor:start;white-space:normal;clip-rule:nonzero;display:inline;overflow:visible;visibility:visible;opacity:1;isolation:auto;mix-blend-mode:normal;color-interpolation:sRGB;color-interpolation-filters:linearRGB;solid-color:#000000;solid-opacity:1;fill:#000000;fill-opacity:1;fill-rule:evenodd;stroke:none;stroke-width:3;stroke-linecap:butt;stroke-linejoin:miter;stroke-miterlimit:4;stroke-dasharray:none;stroke-dashoffset:0;stroke-opacity:1;marker:none;color-rendering:auto;image-rendering:auto;shape-rendering:auto;text-rendering:auto;enable-background:accumulate"
       d="m 250.41406,175.19727 c -3.88048,0.0446 -7.59004,1.60536 -10.33398,4.34961 L 5.7851562,413.8418 c -5.78665407,5.7888 -5.78665407,15.219 0,21.00781 l 28.3828128,28.38281 0,333.99219 c 0.0013,8.18541 6.668107,14.85222 14.853515,14.85351 l 259.328126,0 c 8.18541,-0.001 14.85222,-6.6681 14.85351,-14.85351 l 0,-299.66016 299.65821,0 c 8.18541,-0.001 14.85223,-6.6681 14.85351,-14.85351 l 0,-259.32422 c -0.001,-8.18384 -6.66577,-14.84999 -14.84961,-14.85352 l -333.10156,-0.11132 -28.64062,-28.83985 c -2.82954,-2.84844 -6.69429,-4.43018 -10.70899,-4.38476 z m 0.0352,3 c 3.20514,-0.0363 6.28596,1.22594 8.54492,3.5 l 29.52148,29.72265 334.34961,0.11328 c 6.56315,0.003 11.84858,5.29037 11.84961,11.85352 l 0,259.32422 c -0.001,6.56442 -5.28909,11.85247 -11.85351,11.85351 l -302.65821,0 0,302.66016 c -0.001,6.56442 -5.28909,11.85248 -11.85351,11.85351 l -259.326172,0 -0.002,0 c -6.563496,-0.002 -11.852479,-5.28975 -11.853515,-11.85351 l 0,-335.23633 L 7.90625,432.72852 c -4.6406993,-4.64243 -4.6406993,-12.1232 0,-16.76563 L 242.20117,181.66797 c 2.19053,-2.19078 5.1502,-3.43507 8.24805,-3.4707 z"
       id="path3148"
       inkscape:connector-curvature="0" />
    <path
       style="color:#000000;display:inline;overflow:visible;visibility:visible;opacity:1;fill:none;fill-opacity:1;fill-rule:evenodd;stroke:#000000;stroke-width:3;stroke-linecap:butt;stroke-linejoin:miter;stroke-miterlimit:4;stroke-dasharray:none;stroke-dashoffset:0;stroke-opacity:1;marker:none;enable-background:accumulate"
       d="m 250.58298,190.05097 32.99651,33.22263 339.28184,0.11308 0,259.32366 -314.51168,0 0,314.5136 -259.327241,0 0,-340.14452 -32.7339,-32.7339 234.294471,-234.29455 z"
       id="rect3373" />
  </g>
</svg>
