<?xml version="1.0" encoding="UTF-8" standalone="no"?>
<!-- Created with Inkscape (http://www.inkscape.org/) -->

<svg
   xmlns:dc="http://purl.org/dc/elements/1.1/"
   xmlns:cc="http://creativecommons.org/ns#"
   xmlns:rdf="http://www.w3.org/1999/02/22-rdf-syntax-ns#"
   xmlns:svg="http://www.w3.org/2000/svg"
   xmlns="http://www.w3.org/2000/svg"
   xmlns:sodipodi="http://sodipodi.sourceforge.net/DTD/sodipodi-0.dtd"
   xmlns:inkscape="http://www.inkscape.org/namespaces/inkscape"
   height="297mm"
   width="420mm"
   viewBox="0 0 1488.189 1052.3622"
   id="svg2"
   version="1.1"
   inkscape:version="0.91 r13725"
   sodipodi:docname="cover_box_top.svg">
  <sodipodi:namedview
     pagecolor="#ffffff"
     bordercolor="#666666"
     borderopacity="1"
     objecttolerance="10"
     gridtolerance="10"
     guidetolerance="10"
     inkscape:pageopacity="0"
     inkscape:pageshadow="2"
     inkscape:window-width="2560"
     inkscape:window-height="1368"
     id="namedview6"
     showgrid="false"
     inkscape:document-units="mm"
     inkscape:zoom="0.44851478"
     inkscape:cx="743.77528"
     inkscape:cy="-1.8695809"
     inkscape:window-x="0"
     inkscape:window-y="35"
     inkscape:window-maximized="1"
     inkscape:current-layer="svg2" />
  <defs
     id="defs8" />
  <metadata
     id="metadata4">
    <rdf:RDF>
      <cc:Work
         rdf:about="">
        <dc:format>image/svg+xml</dc:format>
        <dc:type
           rdf:resource="http://purl.org/dc/dcmitype/StillImage" />
        <dc:title />
      </cc:Work>
    </rdf:RDF>
  </metadata>
  <g
     inkscape:label="newlayer"
     inkscape:groupmode="layer"
     id="g3144" />
  <g
     id="g3232"
     inkscape:groupmode="layer"
     inkscape:label="newlayer" />
  <g
     id="g3341"
     transform="translate(-807.37402,-807.37402)">
    <path
       d="m 807.87402,807.87402 36.7006,0 0,14.17322 34.83071,0 0,-14.17322 37.00179,0 0,14.17322 34.83071,0 0,-14.17322 37.00179,0 0,14.17322 34.83068,0 0,-14.17322 37.0018,0 0,14.17322 34.8307,0 0,-14.17322 37.0018,0 0,14.17322 34.8307,0 0,-14.17322 37.0018,0 0,14.17322 34.8307,0 0,-14.17322 37.0018,0 0,14.17322 34.8307,0 0,-14.17322 37.0018,0 0,14.17322 34.8307,0 0,-14.17322 37.0018,0 0,14.17322 34.8307,0 0,-14.17322 37.0018,0 0,14.17322 34.8307,0 0,-14.17322 36.7006,0"
       style="fill:none;stroke:#000000"
       inkscape:label="part"
       id="path3250"
       inkscape:connector-curvature="0" />
    <path
       d="m 1562.5984,807.87402 0,36.7006 -14.1732,0 0,34.83071 14.1732,0 0,37.00179 -14.1732,0 0,34.83071 14.1732,0 0,37.00179 -14.1732,0 0,34.83068 14.1732,0 0,37.0018 -14.1732,0 0,34.8307 14.1732,0 0,37.0018 -14.1732,0 0,34.8307 14.1732,0 0,37.0018 -14.1732,0 0,34.8307 14.1732,0 0,37.0018 -14.1732,0 0,34.8307 14.1732,0 0,37.0018 -14.1732,0 0,34.8307 14.1732,0 0,37.0018 -14.1732,0 0,34.8307 14.1732,0 0,37.0018 -14.1732,0 0,34.8307 14.1732,0 0,36.7006"
       style="fill:none;stroke:#000000"
       inkscape:label="part"
       id="path3252"
       inkscape:connector-curvature="0" />
    <path
       d="m 1562.5984,1562.5984 -36.7006,0 0,-14.1732 -34.8307,0 0,14.1732 -37.0018,0 0,-14.1732 -34.8307,0 0,14.1732 -37.0018,0 0,-14.1732 -34.8307,0 0,14.1732 -37.0018,0 0,-14.1732 -34.8307,0 0,14.1732 -37.0018,0 0,-14.1732 -34.8307,0 0,14.1732 -37.0018,0 0,-14.1732 -34.8307,0 0,14.1732 -37.0018,0 0,-14.1732 -34.8307,0 0,14.1732 -37.0018,0 0,-14.1732 -34.83068,0 0,14.1732 -37.00179,0 0,-14.1732 -34.83071,0 0,14.1732 -37.00179,0 0,-14.1732 -34.83071,0 0,14.1732 -36.7006,0"
       style="fill:none;stroke:#000000"
       inkscape:label="part"
       id="path3254"
       inkscape:connector-curvature="0" />
    <path
       d="m 807.87402,1562.5984 0,-36.7006 14.17322,0 0,-34.8307 -14.17322,0 0,-37.0018 14.17322,0 0,-34.8307 -14.17322,0 0,-37.0018 14.17322,0 0,-34.8307 -14.17322,0 0,-37.0018 14.17322,0 0,-34.8307 -14.17322,0 0,-37.0018 14.17322,0 0,-34.8307 -14.17322,0 0,-37.0018 14.17322,0 0,-34.8307 -14.17322,0 0,-37.0018 14.17322,0 0,-34.8307 -14.17322,0 0,-37.0018 14.17322,0 0,-34.83068 -14.17322,0 0,-37.00179 14.17322,0 0,-34.83071 -14.17322,0 0,-37.00179 14.17322,0 0,-34.83071 -14.17322,0 0,-36.7006"
       style="fill:none;stroke:#000000"
       inkscape:label="part"
       id="path3256"
       inkscape:connector-curvature="0" />
  </g>
</svg>
