<?xml version="1.0" encoding="UTF-8" standalone="no"?>
<!-- Created with Inkscape (http://www.inkscape.org/) -->

<svg
   xmlns:dc="http://purl.org/dc/elements/1.1/"
   xmlns:cc="http://creativecommons.org/ns#"
   xmlns:rdf="http://www.w3.org/1999/02/22-rdf-syntax-ns#"
   xmlns:svg="http://www.w3.org/2000/svg"
   xmlns="http://www.w3.org/2000/svg"
   xmlns:sodipodi="http://sodipodi.sourceforge.net/DTD/sodipodi-0.dtd"
   xmlns:inkscape="http://www.inkscape.org/namespaces/inkscape"
   height="297mm"
   width="420mm"
   viewBox="0 0 1488.189 1052.3622"
   id="svg2"
   version="1.1"
   inkscape:version="0.91 r13725"
   sodipodi:docname="cover_box_right2.svg">
  <sodipodi:namedview
     pagecolor="#ffffff"
     bordercolor="#666666"
     borderopacity="1"
     objecttolerance="10"
     gridtolerance="10"
     guidetolerance="10"
     inkscape:pageopacity="0"
     inkscape:pageshadow="2"
     inkscape:window-width="2560"
     inkscape:window-height="1368"
     id="namedview6"
     showgrid="false"
     inkscape:document-units="px"
     inkscape:zoom="0.44851478"
     inkscape:cx="-50.567283"
     inkscape:cy="-1.8695809"
     inkscape:window-x="0"
     inkscape:window-y="35"
     inkscape:window-maximized="1"
     inkscape:current-layer="svg2" />
  <defs
     id="defs8" />
  <metadata
     id="metadata4">
    <rdf:RDF>
      <cc:Work
         rdf:about="">
        <dc:format>image/svg+xml</dc:format>
        <dc:type
           rdf:resource="http://purl.org/dc/dcmitype/StillImage" />
        <dc:title></dc:title>
      </cc:Work>
    </rdf:RDF>
  </metadata>
  <g
     inkscape:label="newlayer"
     inkscape:groupmode="layer"
     id="g3144" />
  <g
     id="g3232"
     inkscape:groupmode="layer"
     inkscape:label="newlayer" />
  <g
     id="g3335"
     transform="translate(-807.37402,-15.444882)">
    <path
       sodipodi:nodetypes="cc"
       inkscape:connector-curvature="0"
       d="m 807.87402,15.944882 754.72438,0"
       style="fill:none;stroke:#000000"
       inkscape:label="part"
       id="path3274" />
    <path
       d="m 1562.5984,15.944882 0,27.037044 -14.1732,0 0,34.830708 14.1732,0 0,41.511456 -14.1732,0 0,34.83071 14.1732,0 0,41.51145 -14.1732,0 0,34.83071 14.1732,0 0,41.51145 -14.1732,0 0,34.83071 14.1732,0 0,41.51145 -14.1732,0 0,34.83071 14.1732,0 0,41.51145 -14.1732,0 0,34.83071 14.1732,0 0,41.51146 -14.1732,0 0,34.8307 14.1732,0 0,41.51146 -14.1732,0 0,34.83071 14.1732,0 0,41.51145 -14.1732,0 0,34.83071 14.1732,0 0,41.51145 -14.1732,0 0,34.83071 14.1732,0 0,27.03704"
       style="fill:none;stroke:#000000"
       inkscape:label="part"
       id="path3276"
       inkscape:connector-curvature="0" />
    <path
       d="m 1562.5984,791.92913 -36.0982,0 0,14.17323 -36.0355,0 0,-14.17323 -35.797,0 0,14.17323 -36.0355,0 0,-14.17323 -35.797,0 0,14.17323 -36.0355,0 0,-14.17323 -35.797,0 0,14.17323 -36.0354,0 0,-14.17323 -35.7971,0 0,14.17323 -36.0354,0 0,-14.17323 -35.7971,0 0,14.17323 -36.0354,0 0,-14.17323 -35.7971,0 0,14.17323 -36.0354,0 0,-14.17323 -35.7971,0 0,14.17323 -36.03544,0 0,-14.17323 -35.79707,0 0,14.17323 -36.03543,0 0,-14.17323 -35.79706,0 0,14.17323 -36.03544,0 0,-14.17323 -36.09824,0"
       style="fill:none;stroke:#000000"
       inkscape:label="part"
       id="path3278"
       inkscape:connector-curvature="0" />
    <path
       d="m 807.87402,791.92913 0,-27.03704 14.17322,0 0,-34.83071 -14.17322,0 0,-41.51145 14.17322,0 0,-34.83071 -14.17322,0 0,-41.51145 14.17322,0 0,-34.83071 -14.17322,0 0,-41.51146 14.17322,0 0,-34.8307 -14.17322,0 0,-41.51146 14.17322,0 0,-34.83071 -14.17322,0 0,-41.51145 14.17322,0 0,-34.83071 -14.17322,0 0,-41.51145 14.17322,0 0,-34.83071 -14.17322,0 0,-41.51145 14.17322,0 0,-34.83071 -14.17322,0 0,-41.51145 14.17322,0 0,-34.83071 -14.17322,0 0,-41.511456 14.17322,0 0,-34.830708 -14.17322,0 0,-27.037044"
       style="fill:none;stroke:#000000"
       inkscape:label="part"
       id="path3280"
       inkscape:connector-curvature="0" />
  </g>
</svg>
