<?xml version="1.0" encoding="UTF-8" standalone="no"?>
<!-- Created with Inkscape (http://www.inkscape.org/) -->

<svg
   xmlns:dc="http://purl.org/dc/elements/1.1/"
   xmlns:cc="http://creativecommons.org/ns#"
   xmlns:rdf="http://www.w3.org/1999/02/22-rdf-syntax-ns#"
   xmlns:svg="http://www.w3.org/2000/svg"
   xmlns="http://www.w3.org/2000/svg"
   xmlns:sodipodi="http://sodipodi.sourceforge.net/DTD/sodipodi-0.dtd"
   xmlns:inkscape="http://www.inkscape.org/namespaces/inkscape"
   width="420mm"
   height="297mm"
   viewBox="0 0 1488.189 1052.3622"
   id="svg2"
   version="1.1"
   inkscape:version="0.91 r13725"
   sodipodi:docname="plate_zeitraffer_box.svg">
  <sodipodi:namedview
     id="base"
     pagecolor="#ffffff"
     bordercolor="#666666"
     borderopacity="1.0"
     inkscape:pageopacity="0.0"
     inkscape:pageshadow="2"
     inkscape:zoom="1"
     inkscape:cx="1965.5082"
     inkscape:cy="-184.39564"
     inkscape:document-units="px"
     inkscape:current-layer="layer1"
     showgrid="false"
     inkscape:window-width="1920"
     inkscape:window-height="1138"
     inkscape:window-x="2560"
     inkscape:window-y="268"
     inkscape:window-maximized="1" />
  <defs
     id="defs4">
    <inkscape:perspective
       sodipodi:type="inkscape:persp3d"
       inkscape:vp_x="0 : 526.1811 : 1"
       inkscape:vp_y="0 : 1000 : 0"
       inkscape:vp_z="1488.189 : 526.1811 : 1"
       inkscape:persp3d-origin="744.0945 : 350.7874 : 1"
       id="perspective3357" />
  </defs>
  <metadata
     id="metadata7">
    <rdf:RDF>
      <cc:Work
         rdf:about="">
        <dc:format>image/svg+xml</dc:format>
        <dc:type
           rdf:resource="http://purl.org/dc/dcmitype/StillImage" />
        <dc:title />
      </cc:Work>
    </rdf:RDF>
  </metadata>
  <g
     id="layer1"
     inkscape:groupmode="layer"
     inkscape:label="Layer 1"
     transform="translate(0,-1.6535434e-6)">
    <g
       id="g3479">
      <circle
         transform="matrix(0,1,-1,0,0,0)"
         r="175.66536"
         cy="-638.06293"
         cx="215.51964"
         id="path3340"
         style="color:#000000;display:inline;overflow:visible;visibility:visible;opacity:1;fill:none;fill-opacity:1;fill-rule:evenodd;stroke:#008080;stroke-width:3;stroke-linecap:butt;stroke-linejoin:miter;stroke-miterlimit:4;stroke-dasharray:none;stroke-dashoffset:0;stroke-opacity:1;marker:none;enable-background:accumulate" />
      <path
         id="path3342"
         d="m 244.13775,-638.06293 a 28.618111,28.618111 0 0 1 -28.61811,28.61811 28.618111,28.618111 0 0 1 -28.61811,-28.61811 28.618111,28.618111 0 0 1 28.61811,-28.61811 28.618111,28.618111 0 0 1 28.61811,28.61811 z"
         style="color:#000000;display:inline;overflow:visible;visibility:visible;opacity:1;fill:none;fill-opacity:1;fill-rule:evenodd;stroke:#000000;stroke-width:3;stroke-linecap:butt;stroke-linejoin:miter;stroke-miterlimit:4;stroke-dasharray:none;stroke-dashoffset:0;stroke-opacity:1;marker:none;enable-background:accumulate"
         transform="matrix(0,1,-1,0,0,0)" />
      <path
         style="fill:none;stroke:#000000;stroke-width:0.63779533;stroke-linecap:butt;stroke-linejoin:miter"
         id="box-longside1"
         d="m 814.30514,29.17712 10.62992,0 0,8.47011 -10.62992,0 0,16.94023 4.67717,0 0.63779,-0.63779 0.6378,0.63779 4.67716,0 0,16.94023 -10.62992,0 0,16.94023 4.67717,0 0.63779,-0.63779 0.6378,0.63779 4.67716,0 0,16.94023 -10.62992,0 0,16.94023 4.67717,0 0.63779,-0.6378 0.6378,0.6378 4.67716,0 0,16.94023 -10.62992,0 0,16.94023 4.67717,0 0.63779,-0.6378 0.6378,0.6378 4.67716,0 0,16.94023 -10.62992,0 0,16.94023 4.67717,0 0.63779,-0.6378 0.6378,0.6378 4.67716,0 0,16.94022 -10.62992,0 0,16.94023 4.67717,0 0.63779,-0.63779 0.6378,0.63779 4.67716,0 0,16.94023 -10.62992,0 0,16.94023 4.67717,0 0.63779,-0.63779 0.6378,0.63779 4.67716,0 0,16.94023 -10.62992,0 0,16.94023 4.67717,0 0.63779,-0.6378 0.6378,0.6378 4.67716,0 0,16.94023 -10.62992,0 0,16.94023 4.67717,0 0.63779,-0.6378 0.6378,0.6378 4.67716,0 0,16.94023 -10.62992,0 0,16.94023 4.67717,0 0.63779,-0.6378 0.6378,0.6378 4.67716,0 0,16.94023 -10.62992,0 0,16.94022 4.67717,0 0.63779,-0.63779 0.6378,0.63779 4.67716,0 0,8.47012 -10.62992,0 0,10.62992 -8.47011,0 0,-4.67717 -0.6378,-0.63779 0.6378,-0.6378 0,-4.67716 -16.94023,0 0,10.62992 -16.94023,0 0,-4.67717 -0.6378,-0.63779 0.6378,-0.6378 0,-4.67716 -16.94023,0 0,10.62992 -16.94023,0 0,-4.67717 -0.63779,-0.63779 0.63779,-0.6378 0,-4.67716 -16.94023,0 0,10.62992 -16.94023,0 0,-4.67717 -0.63779,-0.63779 0.63779,-0.6378 0,-4.67716 -16.94023,0 0,10.62992 -16.94023,0 0,-4.67717 -0.63779,-0.63779 0.63779,-0.6378 0,-4.67716 -16.94022,0 0,10.62992 -16.94023,0 0,-4.67717 -0.6378,-0.63779 0.6378,-0.6378 0,-4.67716 -16.94023,0 0,10.62992 -16.94023,0 0,-4.67717 -0.6378,-0.63779 0.6378,-0.6378 0,-4.67716 -16.94023,0 0,10.62992 -16.94023,0 0,-4.67717 -0.63779,-0.63779 0.63779,-0.6378 0,-4.67716 -16.94023,0 0,10.62992 -16.94023,0 0,-4.67717 -0.63779,-0.63779 0.63779,-0.6378 0,-4.67716 -16.94023,0 0,10.62992 -16.94023,0 0,-4.67717 -0.63779,-0.63779 0.63779,-0.6378 0,-4.67716 -16.94022,0 0,10.62992 -16.94023,0 0,-4.67717 -0.6378,-0.63779 0.6378,-0.6378 0,-4.67716 -16.94023,0 0,10.62992 -8.47012,0 0,-10.62992 -10.62992,0 0,-8.47012 4.67717,0 0.63779,-0.63779 0.6378,0.63779 4.67716,0 0,-16.94022 -10.62992,0 0,-16.94023 4.67717,0 0.63779,-0.6378 0.6378,0.6378 4.67716,0 0,-16.94023 -10.62992,0 0,-16.94023 4.67717,0 0.63779,-0.6378 0.6378,0.6378 4.67716,0 0,-16.94023 -10.62992,0 0,-16.94023 4.67717,0 0.63779,-0.6378 0.6378,0.6378 4.67716,0 0,-16.94023 -10.62992,0 0,-16.94023 4.67717,0 0.63779,-0.63779 0.6378,0.63779 4.67716,0 0,-16.94023 -10.62992,0 0,-16.94023 4.67717,0 0.63779,-0.63779 0.6378,0.63779 4.67716,0 0,-16.94023 -10.62992,0 0,-16.94022 4.67717,0 0.63779,-0.6378 0.6378,0.6378 4.67716,0 0,-16.94023 -10.62992,0 0,-16.94023 4.67717,0 0.63779,-0.6378 0.6378,0.6378 4.67716,0 0,-16.94023 -10.62992,0 0,-16.94023 4.67717,0 0.63779,-0.6378 0.6378,0.6378 4.67716,0 0,-16.94023 -10.62992,0 0,-16.94023 4.67717,0 0.63779,-0.63779 0.6378,0.63779 4.67716,0 0,-16.94023 -10.62992,0 0,-16.94023 4.67717,0 0.63779,-0.63779 0.6378,0.63779 4.67716,0 0,-16.94023 -10.62992,0 0,-8.47011 10.62992,0 0,-10.62992 8.47012,0 0,10.62992 16.94023,0 0,-4.67717 -0.6378,-0.63779 0.6378,-0.6378 0,-4.67716 16.94023,0 0,10.62992 16.94022,0 0,-4.67717 -0.63779,-0.63779 0.63779,-0.6378 0,-4.67716 16.94023,0 0,10.62992 16.94023,0 0,-4.67717 -0.63779,-0.63779 0.63779,-0.6378 0,-4.67716 16.94023,0 0,10.62992 16.94023,0 0,-4.67717 -0.63779,-0.63779 0.63779,-0.6378 0,-4.67716 16.94023,0 0,10.62992 16.94023,0 0,-4.67717 -0.6378,-0.63779 0.6378,-0.6378 0,-4.67716 16.94023,0 0,10.62992 16.94023,0 0,-4.67717 -0.6378,-0.63779 0.6378,-0.6378 0,-4.67716 16.94023,0 0,10.62992 16.94022,0 0,-4.67717 -0.63779,-0.63779 0.63779,-0.6378 0,-4.67716 16.94023,0 0,10.62992 16.94023,0 0,-4.67717 -0.63779,-0.63779 0.63779,-0.6378 0,-4.67716 16.94023,0 0,10.62992 16.94023,0 0,-4.67717 -0.63779,-0.63779 0.63779,-0.6378 0,-4.67716 16.94023,0 0,10.62992 16.94023,0 0,-4.67717 -0.6378,-0.63779 0.6378,-0.6378 0,-4.67716 16.94023,0 0,10.62992 16.94023,0 0,-4.67717 -0.6378,-0.63779 0.6378,-0.6378 0,-4.67716 8.47011,0 0,10.62992"
         inkscape:connector-curvature="0" />
    </g>
    <path
       inkscape:connector-curvature="0"
       d="m 419.83066,29.17712 0,8.47011 4.67716,0 0.6378,-0.63779 0.63779,0.63779 4.67717,0 0,16.94023 -10.62992,0 0,16.94023 4.67716,0 0.6378,-0.63779 0.63779,0.63779 4.67717,0 0,16.94023 -10.62992,0 0,16.94023 4.67716,0 0.6378,-0.6378 0.63779,0.6378 4.67717,0 0,16.94023 -10.62992,0 0,16.94023 4.67716,0 0.6378,-0.6378 0.63779,0.6378 4.67717,0 0,16.94023 -10.62992,0 0,16.94023 4.67716,0 0.6378,-0.6378 0.63779,0.6378 4.67717,0 0,16.94023 -10.62992,0 0,16.94022 4.67716,0 0.6378,-0.63779 0.63779,0.63779 4.67717,0 0,16.94023 -10.62992,0 0,16.94023 4.67716,0 0.6378,-0.63779 0.63779,0.63779 4.67717,0 0,16.94023 -10.62992,0 0,16.94023 4.67716,0 0.6378,-0.63779 0.63779,0.63779 4.67717,0 0,16.94023 -10.62992,0 0,16.94023 4.67716,0 0.6378,-0.6378 0.63779,0.6378 4.67717,0 0,16.94023 -10.62992,0 0,16.94023 4.67716,0 0.6378,-0.6378 0.63779,0.6378 4.67717,0 0,16.94023 -10.62992,0 0,16.94023 4.67716,0 0.6378,-0.6378 0.63779,0.6378 4.67717,0 0,16.94022 -10.62992,0 0,8.47012 -8.87276,0 0,10.62992 -17.74553,0 0,-4.67717 -0.6378,-0.63779 0.6378,-0.6378 0,-4.67716 -17.74553,0 0,10.62992 -17.74552,0 0,-4.67717 -0.6378,-0.63779 0.6378,-0.6378 0,-4.67716 -17.74553,0 0,10.62992 -17.74553,0 0,-4.67717 -0.63779,-0.63779 0.63779,-0.6378 0,-4.67716 -17.74552,0 0,10.62992 -17.74553,0 0,-4.67717 -0.63779,-0.63779 0.63779,-0.6378 0,-4.67716 -17.74552,0 0,10.62992 -17.74553,0 0,-4.67717 -0.63779,-0.63779 0.63779,-0.6378 0,-4.67716 -17.74556,0 0,10.62992 -17.7455,0 0,-4.67717 -0.6378,-0.63779 0.6378,-0.6378 0,-4.67716 -17.7455,0 0,10.62992 -17.7455,0 0,-4.67717 -0.6378,-0.63779 0.6378,-0.6378 0,-4.67716 -17.7456,0 0,10.62992 -17.7455,0 0,-4.67717 -0.6378,-0.63779 0.6378,-0.6378 0,-4.67716 -17.7455,0 0,10.62992 -17.7455,0 0,-4.67717 -0.6378,-0.63779 0.6378,-0.6378 0,-4.67716 -17.745601,0 0,10.62992 -17.7455,0 0,-4.67717 -0.6378,-0.63779 0.6378,-0.6378 0,-4.67716 -17.7455,0 0,10.62992 -17.7456,0 0,-4.67717 -0.6377,-0.63779 0.6377,-0.6378 0,-4.67716 -8.8727,0 0,-8.47012 -10.6299,0 0,-16.94022 4.6771,0 0.6378,-0.6378 0.6378,0.6378 4.6772,0 0,-16.94023 -10.6299,0 0,-16.94023 4.6771,0 0.6378,-0.6378 0.6378,0.6378 4.6772,0 0,-16.94023 -10.6299,0 0,-16.94023 4.6771,0 0.6378,-0.6378 0.6378,0.6378 4.6772,0 0,-16.94023 -10.6299,0 0,-16.94023 4.6771,0 0.6378,-0.63779 0.6378,0.63779 4.6772,0 0,-16.94023 -10.6299,0 0,-16.94023 4.6771,0 0.6378,-0.63779 0.6378,0.63779 4.6772,0 0,-16.94023 -10.6299,0 0,-16.94023 4.6771,0 0.6378,-0.63779 0.6378,0.63779 4.6772,0 0,-16.94022 -10.6299,0 0,-16.94023 4.6771,0 0.6378,-0.6378 0.6378,0.6378 4.6772,0 0,-16.94023 -10.6299,0 0,-16.94023 4.6771,0 0.6378,-0.6378 0.6378,0.6378 4.6772,0 0,-16.94023 -10.6299,0 0,-16.94023 4.6771,0 0.6378,-0.63779 0.6378,0.63779 4.6772,0 0,-16.94023 -10.6299,0 0,-16.94023 4.6771,0 0.6378,-0.63779 0.6378,0.63779 4.6772,0 0,-16.94023 -10.6299,0 0,-16.94023 4.6771,0 0.6378,-0.63779 0.6378,0.63779 4.6772,0 0,-8.47011 8.8727,0 0,-4.67717 -0.6377,-0.63779 0.6377,-0.6378 0,-4.67716 17.7456,0 0,10.62992 17.7455,0 0,-4.67717 -0.6378,-0.63779 0.6378,-0.6378 0,-4.67716 17.7455,0 0,10.62992 17.745601,0 0,-4.67717 -0.6378,-0.63779 0.6378,-0.6378 0,-4.67716 17.7455,0 0,10.62992 17.7455,0 0,-4.67717 -0.6378,-0.63779 0.6378,-0.6378 0,-4.67716 17.7455,0 0,10.62992 17.7456,0 0,-4.67717 -0.6378,-0.63779 0.6378,-0.6378 0,-4.67716 17.7455,0 0,10.62992 17.7455,0 0,-4.67717 -0.6378,-0.63779 0.6378,-0.6378 0,-4.67716 17.7455,0 0,10.62992 17.74556,0 0,-4.67717 -0.63779,-0.63779 0.63779,-0.6378 0,-4.67716 17.74553,0 0,10.62992 17.74552,0 0,-4.67717 -0.63779,-0.63779 0.63779,-0.6378 0,-4.67716 17.74553,0 0,10.62992 17.74552,0 0,-4.67717 -0.63779,-0.63779 0.63779,-0.6378 0,-4.67716 17.74553,0 0,10.62992 17.74553,0 0,-4.67717 -0.6378,-0.63779 0.6378,-0.6378 0,-4.67716 17.74552,0 0,10.62992 17.74553,0 0,-4.67717 -0.6378,-0.63779 0.6378,-0.6378 0,-4.67716 17.74553,0 0,10.62992 8.87276,0"
       id="box-base"
       style="fill:none;stroke:#000000;stroke-width:0.63779533;stroke-linecap:butt;stroke-linejoin:miter" />
    <path
       inkscape:connector-curvature="0"
       d="m 401.83068,425.75192 10.6299,0 0,8.47011 -10.6299,0 0,16.94023 4.6772,0 0.6378,-0.63779 0.6378,0.63779 4.6771,0 0,16.94023 -10.6299,0 0,16.94023 4.6772,0 0.6378,-0.63779 0.6378,0.63779 4.6771,0 0,16.94023 -10.6299,0 0,16.94023 4.6772,0 0.6378,-0.6378 0.6378,0.6378 4.6771,0 0,16.94023 -10.6299,0 0,16.94023 4.6772,0 0.6378,-0.6378 0.6378,0.6378 4.6771,0 0,16.94023 -10.6299,0 0,16.94023 4.6772,0 0.6378,-0.6378 0.6378,0.6378 4.6771,0 0,16.94022 -10.6299,0 0,16.94023 4.6772,0 0.6378,-0.63779 0.6378,0.63779 4.6771,0 0,16.94023 -10.6299,0 0,16.94023 4.6772,0 0.6378,-0.63779 0.6378,0.63779 4.6771,0 0,16.94023 -10.6299,0 0,16.94024 4.6772,0 0.6378,-0.6378 0.6378,0.6378 4.6771,0 0,16.9402 -10.6299,0 0,16.9403 4.6772,0 0.6378,-0.6378 0.6378,0.6378 4.6771,0 0,16.9402 -10.6299,0 0,16.9402 4.6772,0 0.6378,-0.6378 0.6378,0.6378 4.6771,0 0,16.9402 -10.6299,0 0,16.9403 4.6772,0 0.6378,-0.6378 0.6378,0.6378 4.6771,0 0,8.4701 -10.6299,0 0,10.6299 -8.4701,0 0,-4.6772 -0.6378,-0.6378 0.6378,-0.6378 0,-4.6771 -16.9402,0 0,10.6299 -16.9403,0 0,-4.6772 -0.6377,-0.6378 0.6377,-0.6378 0,-4.6771 -16.9402,0 0,10.6299 -16.9402,0 0,-4.6772 -0.6378,-0.6378 0.6378,-0.6378 0,-4.6771 -16.9402,0 0,10.6299 -16.9403,0 0,-4.6772 -0.6378,-0.6378 0.6378,-0.6378 0,-4.6771 -16.9402,0 0,10.6299 -16.9402,0 0,-4.6772 -0.6378,-0.6378 0.6378,-0.6378 0,-4.6771 -16.9403,0 0,10.6299 -16.9402,0 0,-4.6772 -0.6378,-0.6378 0.6378,-0.6378 0,-4.6771 -16.9402,0 0,10.6299 -16.9402,0 0,-4.6772 -0.6378,-0.6378 0.6378,-0.6378 0,-4.6771 -16.9403,0 0,10.6299 -16.9402,0 0,-4.6772 -0.6378,-0.6378 0.6378,-0.6378 0,-4.6771 -16.9402,0 0,10.6299 -16.9403,0 0,-4.6772 -0.6378,-0.6378 0.6378,-0.6378 0,-4.6771 -16.9402,0 0,10.6299 -16.940181,0 0,-4.6772 -0.6378,-0.6378 0.6378,-0.6378 0,-4.6771 -16.9402,0 0,10.6299 -16.9403,0 0,-4.6772 -0.6378,-0.6378 0.6378,-0.6378 0,-4.6771 -16.9402,0 0,10.6299 -8.4701,0 0,-10.6299 -10.6299,0 0,-8.4701 4.6771,0 0.6378,-0.6378 0.6378,0.6378 4.6772,0 0,-16.9403 -10.6299,0 0,-16.9402 4.6771,0 0.6378,-0.6378 0.6378,0.6378 4.6772,0 0,-16.9402 -10.6299,0 0,-16.9402 4.6771,0 0.6378,-0.6378 0.6378,0.6378 4.6772,0 0,-16.9403 -10.6299,0 0,-16.9402 4.6771,0 0.6378,-0.6378 0.6378,0.6378 4.6772,0 0,-16.94024 -10.6299,0 0,-16.94023 4.6771,0 0.6378,-0.63779 0.6378,0.63779 4.6772,0 0,-16.94023 -10.6299,0 0,-16.94023 4.6771,0 0.6378,-0.63779 0.6378,0.63779 4.6772,0 0,-16.94023 -10.6299,0 0,-16.94022 4.6771,0 0.6378,-0.6378 0.6378,0.6378 4.6772,0 0,-16.94023 -10.6299,0 0,-16.94023 4.6771,0 0.6378,-0.6378 0.6378,0.6378 4.6772,0 0,-16.94023 -10.6299,0 0,-16.94023 4.6771,0 0.6378,-0.6378 0.6378,0.6378 4.6772,0 0,-16.94023 -10.6299,0 0,-16.94023 4.6771,0 0.6378,-0.63779 0.6378,0.63779 4.6772,0 0,-16.94023 -10.6299,0 0,-16.94023 4.6771,0 0.6378,-0.63779 0.6378,0.63779 4.6772,0 0,-16.94023 -10.6299,0 0,-8.47011 10.6299,0 0,-10.62992 8.4701,0 0,10.62992 16.9402,0 0,-4.67717 -0.6378,-0.63779 0.6378,-0.6378 0,-4.67716 16.9403,0 0,10.62992 16.9402,0 0,-4.67717 -0.6378,-0.63779 0.6378,-0.6378 0,-4.67716 16.940181,0 0,10.62992 16.9402,0 0,-4.67717 -0.6378,-0.63779 0.6378,-0.6378 0,-4.67716 16.9403,0 0,10.62992 16.9402,0 0,-4.67717 -0.6378,-0.63779 0.6378,-0.6378 0,-4.67716 16.9402,0 0,10.62992 16.9403,0 0,-4.67717 -0.6378,-0.63779 0.6378,-0.6378 0,-4.67716 16.9402,0 0,10.62992 16.9402,0 0,-4.67717 -0.6378,-0.63779 0.6378,-0.6378 0,-4.67716 16.9402,0 0,10.62992 16.9403,0 0,-4.67717 -0.6378,-0.63779 0.6378,-0.6378 0,-4.67716 16.9402,0 0,10.62992 16.9402,0 0,-4.67717 -0.6378,-0.63779 0.6378,-0.6378 0,-4.67716 16.9403,0 0,10.62992 16.9402,0 0,-4.67717 -0.6378,-0.63779 0.6378,-0.6378 0,-4.67716 16.9402,0 0,10.62992 16.9402,0 0,-4.67717 -0.6377,-0.63779 0.6377,-0.6378 0,-4.67716 16.9403,0 0,10.62992 16.9402,0 0,-4.67717 -0.6378,-0.63779 0.6378,-0.6378 0,-4.67716 8.4701,0 0,10.62992"
       id="box-longside2"
       style="fill:none;stroke:#000000;stroke-width:0.63779533;stroke-linecap:butt;stroke-linejoin:miter" />
    <path
       inkscape:connector-curvature="0"
       d="m 1225.7464,415.122 0,19.10004 10.6299,0 0,16.94023 -4.6771,0 -0.6378,0.63779 -0.6378,-0.63779 -4.6772,0 0,16.94023 10.6299,0 0,16.94023 -4.6771,0 -0.6378,0.63779 -0.6378,-0.63779 -4.6772,0 0,16.94022 10.6299,0 0,16.94023 -4.6771,0 -0.6378,0.6378 -0.6378,-0.6378 -4.6772,0 0,16.94023 10.6299,0 0,16.94023 -4.6771,0 -0.6378,0.6378 -0.6378,-0.6378 -4.6772,0 0,16.94023 10.6299,0 0,16.94023 -4.6771,0 -0.6378,0.63779 -0.6378,-0.63779 -4.6772,0 0,16.94023 10.6299,0 0,16.94023 -4.6771,0 -0.6378,0.63779 -0.6378,-0.63779 -4.6772,0 0,16.94023 10.6299,0 0,16.94023 -4.6771,0 -0.6378,0.63779 -0.6378,-0.63779 -4.6772,0 0,16.94022 10.6299,0 0,16.94024 -4.6771,0 -0.6378,0.6378 -0.6378,-0.6378 -4.6772,0 0,16.9402 10.6299,0 0,16.9403 -4.6771,0 -0.6378,0.6378 -0.6378,-0.6378 -4.6772,0 0,16.9402 10.6299,0 0,16.9402 -4.6771,0 -0.6378,0.6378 -0.6378,-0.6378 -4.6772,0 0,16.9402 10.6299,0 0,16.9403 -4.6771,0 -0.6378,0.6378 -0.6378,-0.6378 -4.6772,0 0,19.1 -8.8728,0 0,-4.6772 -0.6378,-0.6378 0.6378,-0.6377 0,-4.6772 -17.7455,0 0,10.6299 -17.7455,0 0,-4.6772 -0.6378,-0.6378 0.6378,-0.6377 0,-4.6772 -17.7455,0 0,10.6299 -17.7456,0 0,-4.6772 -0.6378,-0.6378 0.6378,-0.6377 0,-4.6772 -17.7455,0 0,10.6299 -17.7455,0 0,-4.6772 -0.6378,-0.6378 0.6378,-0.6377 0,-4.6772 -17.7455,0 0,10.6299 -17.7456,0 0,-4.6772 -0.6378,-0.6378 0.6378,-0.6377 0,-4.6772 -17.7455,0 0,10.6299 -17.7455,0 0,-4.6772 -0.6378,-0.6378 0.6378,-0.6377 0,-4.6772 -17.7455,0 0,10.6299 -17.7456,0 0,-4.6772 -0.6378,-0.6378 0.6378,-0.6377 0,-4.6772 -17.7455,0 0,10.6299 -17.74497,0 0,-4.6772 -0.63779,-0.6378 0.63779,-0.6377 0,-4.6772 -17.74552,0 0,10.6299 -17.74553,0 0,-4.6772 -0.6378,-0.6378 0.6378,-0.6377 0,-4.6772 -17.74553,0 0,10.6299 -17.74552,0 0,-4.6772 -0.6378,-0.6378 0.6378,-0.6377 0,-4.6772 -17.74553,0 0,10.6299 -17.74552,0 0,-4.6772 -0.6378,-0.6378 0.6378,-0.6377 0,-4.6772 -17.74553,0 0,10.6299 -8.87276,0 0,-19.1 -4.67717,0 -0.63779,0.6378 -0.6378,-0.6378 -4.67716,0 0,-16.9403 10.62992,0 0,-16.9402 -4.67717,0 -0.63779,0.6378 -0.6378,-0.6378 -4.67716,0 0,-16.9402 10.62992,0 0,-16.9402 -4.67717,0 -0.63779,0.6378 -0.6378,-0.6378 -4.67716,0 0,-16.9403 10.62992,0 0,-16.9402 -4.67717,0 -0.63779,0.6378 -0.6378,-0.6378 -4.67716,0 0,-16.94024 10.62992,0 0,-16.94022 -4.67717,0 -0.63779,0.63779 -0.6378,-0.63779 -4.67716,0 0,-16.94023 10.62992,0 0,-16.94023 -4.67717,0 -0.63779,0.63779 -0.6378,-0.63779 -4.67716,0 0,-16.94023 10.62992,0 0,-16.94023 -4.67717,0 -0.63779,0.63779 -0.6378,-0.63779 -4.67716,0 0,-16.94023 10.62992,0 0,-16.94023 -4.67717,0 -0.63779,0.6378 -0.6378,-0.6378 -4.67716,0 0,-16.94023 10.62992,0 0,-16.94023 -4.67717,0 -0.63779,0.6378 -0.6378,-0.6378 -4.67716,0 0,-16.94023 10.62992,0 0,-16.94022 -4.67717,0 -0.63779,0.63779 -0.6378,-0.63779 -4.67716,0 0,-16.94023 10.62992,0 0,-16.94023 -4.67717,0 -0.63779,0.63779 -0.6378,-0.63779 -4.67716,0 0,-16.94023 10.62992,0 0,-19.10004 8.87276,0 0,10.62992 17.74553,0 0,-4.67716 -0.6378,-0.6378 0.6378,-0.63779 0,-4.67717 17.74552,0 0,10.62992 17.74553,0 0,-4.67716 -0.6378,-0.6378 0.6378,-0.63779 0,-4.67717 17.74552,0 0,10.62992 17.74553,0 0,-4.67716 -0.6378,-0.6378 0.6378,-0.63779 0,-4.67717 17.74553,0 0,10.62992 17.74552,0 0,-4.67716 -0.63779,-0.6378 0.63779,-0.63779 0,-4.67717 17.74497,0 0,10.62992 17.7455,0 0,-4.67716 -0.6378,-0.6378 0.6378,-0.63779 0,-4.67717 17.7456,0 0,10.62992 17.7455,0 0,-4.67716 -0.6378,-0.6378 0.6378,-0.63779 0,-4.67717 17.7455,0 0,10.62992 17.7455,0 0,-4.67716 -0.6378,-0.6378 0.6378,-0.63779 0,-4.67717 17.7456,0 0,10.62992 17.7455,0 0,-4.67716 -0.6378,-0.6378 0.6378,-0.63779 0,-4.67717 17.7455,0 0,10.62992 17.7455,0 0,-4.67716 -0.6378,-0.6378 0.6378,-0.63779 0,-4.67717 17.7456,0 0,10.62992 17.7455,0 0,-4.67716 -0.6378,-0.6378 0.6378,-0.63779 0,-4.67717 17.7455,0 0,10.62992 17.7455,0 0,-4.67716 -0.6378,-0.6378 0.6378,-0.63779 0,-4.67717 8.8728,0"
       id="box-endface2"
       style="fill:none;stroke:#000000;stroke-width:0.63779533;stroke-linecap:butt;stroke-linejoin:miter" />
    <path
       inkscape:connector-curvature="0"
       d="m 813.62188,415.122 0,19.10004 10.62992,0 0,16.94023 -4.67717,0 -0.63779,0.63779 -0.6378,-0.63779 -4.67716,0 0,16.94023 10.62992,0 0,16.94023 -4.67717,0 -0.63779,0.63779 -0.6378,-0.63779 -4.67716,0 0,16.94022 10.62992,0 0,16.94023 -4.67717,0 -0.63779,0.6378 -0.6378,-0.6378 -4.67716,0 0,16.94023 10.62992,0 0,16.94023 -4.67717,0 -0.63779,0.6378 -0.6378,-0.6378 -4.67716,0 0,16.94023 10.62992,0 0,16.94023 -4.67717,0 -0.63779,0.63779 -0.6378,-0.63779 -4.67716,0 0,16.94023 10.62992,0 0,16.94023 -4.67717,0 -0.63779,0.63779 -0.6378,-0.63779 -4.67716,0 0,16.94023 10.62992,0 0,16.94023 -4.67717,0 -0.63779,0.63779 -0.6378,-0.63779 -4.67716,0 0,16.94022 10.62992,0 0,16.94024 -4.67717,0 -0.63779,0.6378 -0.6378,-0.6378 -4.67716,0 0,16.9402 10.62992,0 0,16.9403 -4.67717,0 -0.63779,0.6378 -0.6378,-0.6378 -4.67716,0 0,16.9402 10.62992,0 0,16.9402 -4.67717,0 -0.63779,0.6378 -0.6378,-0.6378 -4.67716,0 0,16.9402 10.62992,0 0,16.9403 -4.67717,0 -0.63779,0.6378 -0.6378,-0.6378 -4.67716,0 0,19.1 -8.87276,0 0,-4.6772 -0.6378,-0.6378 0.6378,-0.6377 0,-4.6772 -17.74553,0 0,10.6299 -17.74553,0 0,-4.6772 -0.63779,-0.6378 0.63779,-0.6377 0,-4.6772 -17.74552,0 0,10.6299 -17.74553,0 0,-4.6772 -0.63779,-0.6378 0.63779,-0.6377 0,-4.6772 -17.74553,0 0,10.6299 -17.74552,0 0,-4.6772 -0.6378,-0.6378 0.6378,-0.6377 0,-4.6772 -17.74553,0 0,10.6299 -17.74552,0 0,-4.6772 -0.6378,-0.6378 0.6378,-0.6377 0,-4.6772 -17.74553,0 0,10.6299 -17.74556,0 0,-4.6772 -0.6378,-0.6378 0.6378,-0.6377 0,-4.6772 -17.7455,0 0,10.6299 -17.7455,0 0,-4.6772 -0.6378,-0.6378 0.6378,-0.6377 0,-4.6772 -17.7455,0 0,10.6299 -17.7456,0 0,-4.6772 -0.6378,-0.6378 0.6378,-0.6377 0,-4.6772 -17.7455,0 0,10.6299 -17.7455,0 0,-4.6772 -0.6378,-0.6378 0.6378,-0.6377 0,-4.6772 -17.7455,0 0,10.6299 -17.7456,0 0,-4.6772 -0.6378,-0.6378 0.6378,-0.6377 0,-4.6772 -17.7455,0 0,10.6299 -17.7455,0 0,-4.6772 -0.6378,-0.6378 0.6378,-0.6377 0,-4.6772 -17.7456,0 0,10.6299 -8.8727,0 0,-19.1 -4.6772,0 -0.6378,0.6378 -0.6378,-0.6378 -4.6771,0 0,-16.9403 10.6299,0 0,-16.9402 -4.6772,0 -0.6378,0.6378 -0.6378,-0.6378 -4.6771,0 0,-16.9402 10.6299,0 0,-16.9402 -4.6772,0 -0.6378,0.6378 -0.6378,-0.6378 -4.6771,0 0,-16.9403 10.6299,0 0,-16.9402 -4.6772,0 -0.6378,0.6378 -0.6378,-0.6378 -4.6771,0 0,-16.94024 10.6299,0 0,-16.94022 -4.6772,0 -0.6378,0.63779 -0.6378,-0.63779 -4.6771,0 0,-16.94023 10.6299,0 0,-16.94023 -4.6772,0 -0.6378,0.63779 -0.6378,-0.63779 -4.6771,0 0,-16.94023 10.6299,0 0,-16.94023 -4.6772,0 -0.6378,0.63779 -0.6378,-0.63779 -4.6771,0 0,-16.94023 10.6299,0 0,-16.94023 -4.6772,0 -0.6378,0.6378 -0.6378,-0.6378 -4.6771,0 0,-16.94023 10.6299,0 0,-16.94023 -4.6772,0 -0.6378,0.6378 -0.6378,-0.6378 -4.6771,0 0,-16.94023 10.6299,0 0,-16.94022 -4.6772,0 -0.6378,0.63779 -0.6378,-0.63779 -4.6771,0 0,-16.94023 10.6299,0 0,-16.94023 -4.6772,0 -0.6378,0.63779 -0.6378,-0.63779 -4.6771,0 0,-16.94023 10.6299,0 0,-19.10004 8.8727,0 0,10.62992 17.7456,0 0,-4.67716 -0.6378,-0.6378 0.6378,-0.63779 0,-4.67717 17.7455,0 0,10.62992 17.7455,0 0,-4.67716 -0.6378,-0.6378 0.6378,-0.63779 0,-4.67717 17.7456,0 0,10.62992 17.7455,0 0,-4.67716 -0.6378,-0.6378 0.6378,-0.63779 0,-4.67717 17.7455,0 0,10.62992 17.7455,0 0,-4.67716 -0.6378,-0.6378 0.6378,-0.63779 0,-4.67717 17.7456,0 0,10.62992 17.7455,0 0,-4.67716 -0.6378,-0.6378 0.6378,-0.63779 0,-4.67717 17.7455,0 0,10.62992 17.7455,0 0,-4.67716 -0.6378,-0.6378 0.6378,-0.63779 0,-4.67717 17.74556,0 0,10.62992 17.74553,0 0,-4.67716 -0.6378,-0.6378 0.6378,-0.63779 0,-4.67717 17.74552,0 0,10.62992 17.74553,0 0,-4.67716 -0.6378,-0.6378 0.6378,-0.63779 0,-4.67717 17.74552,0 0,10.62992 17.74553,0 0,-4.67716 -0.63779,-0.6378 0.63779,-0.63779 0,-4.67717 17.74553,0 0,10.62992 17.74552,0 0,-4.67716 -0.63779,-0.6378 0.63779,-0.63779 0,-4.67717 17.74553,0 0,10.62992 17.74553,0 0,-4.67716 -0.6378,-0.6378 0.6378,-0.63779 0,-4.67717 8.87276,0"
       id="box-endface1"
       style="fill:none;stroke:#000000;stroke-width:0.63779533;stroke-linecap:butt;stroke-linejoin:miter" />
    <path
       style="fill:none;fill-rule:evenodd;stroke:#000000;stroke-width:1px;stroke-linecap:butt;stroke-linejoin:miter;stroke-opacity:1"
       d="m 144.75001,29.0648 0,372.64528"
       id="path3420"
       inkscape:connector-curvature="0" />
    <g
       id="g3397">
      <path
         style="fill:none;stroke:#000000;stroke-width:0.63779533;stroke-linecap:butt;stroke-linejoin:miter"
         id="box-lid"
         d="m 1225.747,29.17712 0,8.47011 4.6771,0 0.6378,-0.63779 0.6378,0.63779 4.6772,0 0,16.94023 -10.6299,0 0,16.94023 4.6771,0 0.6378,-0.63779 0.6378,0.63779 4.6772,0 0,16.94023 -10.6299,0 0,16.94023 4.6771,0 0.6378,-0.6378 0.6378,0.6378 4.6772,0 0,16.94023 -10.6299,0 0,16.94023 4.6771,0 0.6378,-0.6378 0.6378,0.6378 4.6772,0 0,16.94023 -10.6299,0 0,16.94023 4.6771,0 0.6378,-0.6378 0.6378,0.6378 4.6772,0 0,16.94023 -10.6299,0 0,16.94022 4.6771,0 0.6378,-0.63779 0.6378,0.63779 4.6772,0 0,16.94023 -10.6299,0 0,16.94023 4.6771,0 0.6378,-0.63779 0.6378,0.63779 4.6772,0 0,16.94023 -10.6299,0 0,16.94023 4.6771,0 0.6378,-0.63779 0.6378,0.63779 4.6772,0 0,16.94023 -10.6299,0 0,16.94023 4.6771,0 0.6378,-0.6378 0.6378,0.6378 4.6772,0 0,16.94023 -10.6299,0 0,16.94023 4.6771,0 0.6378,-0.6378 0.6378,0.6378 4.6772,0 0,16.94023 -10.6299,0 0,16.94023 4.6771,0 0.6378,-0.6378 0.6378,0.6378 4.6772,0 0,16.94022 -10.6299,0 0,8.47012 -8.8728,0 0,10.62992 -17.7455,0 0,-4.67717 -0.6378,-0.63779 0.6378,-0.6378 0,-4.67716 -17.7456,0 0,10.62992 -17.7455,0 0,-4.67717 -0.6378,-0.63779 0.6378,-0.6378 0,-4.67716 -17.7455,0 0,10.62992 -17.7455,0 0,-4.67717 -0.6378,-0.63779 0.6378,-0.6378 0,-4.67716 -17.7456,0 0,10.62992 -17.7455,0 0,-4.67717 -0.6378,-0.63779 0.6378,-0.6378 0,-4.67716 -17.7455,0 0,10.62992 -17.7455,0 0,-4.67717 -0.6378,-0.63779 0.6378,-0.6378 0,-4.67716 -17.7456,0 0,10.62992 -17.7455,0 0,-4.67717 -0.6378,-0.63779 0.6378,-0.6378 0,-4.67716 -17.7455,0 0,10.62992 -17.74554,0 0,-4.67717 -0.6378,-0.63779 0.6378,-0.6378 0,-4.67716 -17.74553,0 0,10.62992 -17.74552,0 0,-4.67717 -0.6378,-0.63779 0.6378,-0.6378 0,-4.67716 -17.74553,0 0,10.62992 -17.74553,0 0,-4.67717 -0.63779,-0.63779 0.63779,-0.6378 0,-4.67716 -17.74552,0 0,10.62992 -17.74553,0 0,-4.67717 -0.63779,-0.63779 0.63779,-0.6378 0,-4.67716 -17.74552,0 0,10.62992 -17.74553,0 0,-4.67717 -0.6378,-0.63779 0.6378,-0.6378 0,-4.67716 -8.87276,0 0,-8.47012 -10.62992,0 0,-16.94022 4.67716,0 0.6378,-0.6378 0.63779,0.6378 4.67717,0 0,-16.94023 -10.62992,0 0,-16.94023 4.67716,0 0.6378,-0.6378 0.63779,0.6378 4.67717,0 0,-16.94023 -10.62992,0 0,-16.94023 4.67716,0 0.6378,-0.6378 0.63779,0.6378 4.67717,0 0,-16.94023 -10.62992,0 0,-16.94023 4.67716,0 0.6378,-0.63779 0.63779,0.63779 4.67717,0 0,-16.94023 -10.62992,0 0,-16.94023 4.67716,0 0.6378,-0.63779 0.63779,0.63779 4.67717,0 0,-16.94023 -10.62992,0 0,-16.94023 4.67716,0 0.6378,-0.63779 0.63779,0.63779 4.67717,0 0,-16.94022 -10.62992,0 0,-16.94023 4.67716,0 0.6378,-0.6378 0.63779,0.6378 4.67717,0 0,-16.94023 -10.62992,0 0,-16.94023 4.67716,0 0.6378,-0.6378 0.63779,0.6378 4.67717,0 0,-16.94023 -10.62992,0 0,-16.94023 4.67716,0 0.6378,-0.63779 0.63779,0.63779 4.67717,0 0,-16.94023 -10.62992,0 0,-16.94023 4.67716,0 0.6378,-0.63779 0.63779,0.63779 4.67717,0 0,-16.94023 -10.62992,0 0,-16.94023 4.67716,0 0.6378,-0.63779 0.63779,0.63779 4.67717,0 0,-8.47011 8.87276,0 0,-4.67717 -0.6378,-0.63779 0.6378,-0.6378 0,-4.67716 17.74553,0 0,10.62992 17.74552,0 0,-4.67717 -0.63779,-0.63779 0.63779,-0.6378 0,-4.67716 17.74553,0 0,10.62992 17.74552,0 0,-4.67717 -0.63779,-0.63779 0.63779,-0.6378 0,-4.67716 17.74553,0 0,10.62992 17.74553,0 0,-4.67717 -0.6378,-0.63779 0.6378,-0.6378 0,-4.67716 17.74552,0 0,10.62992 17.74553,0 0,-4.67717 -0.6378,-0.63779 0.6378,-0.6378 0,-4.67716 17.74554,0 0,10.62992 17.7455,0 0,-4.67717 -0.6378,-0.63779 0.6378,-0.6378 0,-4.67716 17.7455,0 0,10.62992 17.7456,0 0,-4.67717 -0.6378,-0.63779 0.6378,-0.6378 0,-4.67716 17.7455,0 0,10.62992 17.7455,0 0,-4.67717 -0.6378,-0.63779 0.6378,-0.6378 0,-4.67716 17.7455,0 0,10.62992 17.7456,0 0,-4.67717 -0.6378,-0.63779 0.6378,-0.6378 0,-4.67716 17.7455,0 0,10.62992 17.7455,0 0,-4.67717 -0.6378,-0.63779 0.6378,-0.6378 0,-4.67716 17.7455,0 0,10.62992 17.7456,0 0,-4.67717 -0.6378,-0.63779 0.6378,-0.6378 0,-4.67716 17.7455,0 0,10.62992 8.8728,0"
         inkscape:connector-curvature="0" />
      <rect
         transform="matrix(0,1,-1,0,0,0)"
         y="-1215.5331"
         x="56.185001"
         height="11.173228"
         width="21.80315"
         id="rect3422"
         style="color:#000000;display:inline;overflow:visible;visibility:visible;opacity:1;fill:none;fill-opacity:1;fill-rule:evenodd;stroke:#000000;stroke-width:2.99999976;stroke-linecap:butt;stroke-linejoin:miter;stroke-miterlimit:4;stroke-dasharray:none;stroke-dashoffset:0;stroke-opacity:1;marker:none;enable-background:accumulate" />
      <rect
         transform="matrix(0,1,-1,0,0,0)"
         style="color:#000000;display:inline;overflow:visible;visibility:visible;opacity:1;fill:none;fill-opacity:1;fill-rule:evenodd;stroke:#000000;stroke-width:2.99999976;stroke-linecap:butt;stroke-linejoin:miter;stroke-miterlimit:4;stroke-dasharray:none;stroke-dashoffset:0;stroke-opacity:1;marker:none;enable-background:accumulate"
         id="rect3424"
         width="21.80315"
         height="11.173228"
         x="349.50781"
         y="-1215.5331" />
      <g
         transform="translate(30,0)"
         id="g3379">
        <rect
           style="color:#000000;display:inline;overflow:visible;visibility:visible;opacity:1;fill:none;fill-opacity:1;fill-rule:evenodd;stroke:#000000;stroke-width:3;stroke-linecap:butt;stroke-linejoin:miter;stroke-miterlimit:4;stroke-dasharray:none;stroke-dashoffset:0;stroke-opacity:1;marker:none;enable-background:accumulate"
           id="rect3426"
           width="4.0866141"
           height="4.0866141"
           x="213.47633"
           y="-1012.188"
           transform="matrix(0,1,-1,0,0,0)" />
        <rect
           y="-1166.3218"
           x="213.47633"
           height="4.0866141"
           width="4.0866141"
           id="rect3428"
           style="color:#000000;display:inline;overflow:visible;visibility:visible;opacity:1;fill:none;fill-opacity:1;fill-rule:evenodd;stroke:#000000;stroke-width:3;stroke-linecap:butt;stroke-linejoin:miter;stroke-miterlimit:4;stroke-dasharray:none;stroke-dashoffset:0;stroke-opacity:1;marker:none;enable-background:accumulate"
           transform="matrix(0,1,-1,0,0,0)" />
      </g>
    </g>
    <path
       style="color:#000000;display:inline;overflow:visible;visibility:visible;opacity:1;fill:none;fill-opacity:1;fill-rule:evenodd;stroke:#000000;stroke-width:3;stroke-linecap:butt;stroke-linejoin:miter;stroke-miterlimit:4;stroke-dasharray:none;stroke-dashoffset:0;stroke-opacity:1;marker:none;enable-background:accumulate"
       d="m 1954.4238,929.44336 -250.9336,250.93364 35.0586,35.0585 0,364.3008 277.7442,0 0,-336.8496 336.8476,0 0,-277.74022 -363.3769,-0.12109 z"
       transform="translate(0,1.6535434e-6)"
       id="rect3373"
       inkscape:connector-curvature="0"
       sodipodi:nodetypes="cccccccccc" />
    <path
       style="fill:none;fill-rule:evenodd;stroke:#000000;stroke-width:1px;stroke-linecap:butt;stroke-linejoin:miter;stroke-opacity:1"
       d="M 2022.8364,587.70955 2298.441,312.10491"
       id="path3379"
       inkscape:connector-curvature="0" />
    <path
       style="fill:none;fill-rule:evenodd;stroke:#000000;stroke-width:0.99999994px;stroke-linecap:butt;stroke-linejoin:miter;stroke-opacity:1"
       d="m 1962,994.3622 389.7638,0"
       id="path3439"
       inkscape:connector-curvature="0" />
    <rect
       style="color:#000000;display:inline;overflow:visible;visibility:visible;opacity:1;fill:none;fill-opacity:1;fill-rule:evenodd;stroke:#00ff00;stroke-width:3.00000024;stroke-linecap:butt;stroke-linejoin:miter;stroke-miterlimit:4;stroke-dasharray:none;stroke-dashoffset:0;stroke-opacity:1;marker:none;enable-background:accumulate"
       id="rect3446"
       width="39.519684"
       height="349.55905"
       x="2043.7571"
       y="-723.20721"
       transform="matrix(0.70710678,0.70710678,-0.70710678,0.70710678,0,0)" />
    <path
       style="color:#000000;display:inline;overflow:visible;visibility:visible;opacity:1;fill:none;fill-opacity:1;fill-rule:evenodd;stroke:#ff5555;stroke-width:3;stroke-linecap:butt;stroke-linejoin:miter;stroke-miterlimit:4;stroke-dasharray:none;stroke-dashoffset:0;stroke-opacity:1;marker:none;enable-background:accumulate"
       d="m 2352.5206,1074.438 -368.3791,-98.99495 -163.1857,598.38705 m 531.5648,-449.2425 -604.5527,83.4386 48.0833,373.2519"
       id="rect3448"
       inkscape:connector-curvature="0"
       sodipodi:nodetypes="ccccc" />
    <text
       sodipodi:linespacing="100%"
       id="text3465"
       y="2325.0266"
       x="-1197.4877"
       style="font-style:normal;font-variant:normal;font-weight:normal;font-stretch:normal;font-size:20px;line-height:100%;font-family:Ubuntu;-inkscape-font-specification:'Ubuntu, Normal';text-align:start;letter-spacing:-2.40999985px;word-spacing:0px;writing-mode:lr-tb;text-anchor:start;fill:#00ff00;fill-opacity:1;stroke:none;stroke-width:1px;stroke-linecap:butt;stroke-linejoin:miter;stroke-opacity:1"
       xml:space="preserve"
       transform="matrix(0,-1,1,0,0,0)"><tspan
         y="2325.0266"
         x="-1198.6926"
         sodipodi:role="line"
         id="tspan3477"
         style="text-align:center;text-anchor:middle">^^^^^</tspan><tspan
         y="2345.0266"
         x="-1198.6926"
         sodipodi:role="line"
         style="text-align:center;text-anchor:middle"
         id="tspan3481">&lt; LED &gt;</tspan></text>
    <text
       xml:space="preserve"
       style="font-style:normal;font-variant:normal;font-weight:normal;font-stretch:normal;font-size:20px;line-height:100%;font-family:Ubuntu;-inkscape-font-specification:'Ubuntu, Normal';text-align:start;letter-spacing:-2.40999985px;word-spacing:0px;writing-mode:lr-tb;text-anchor:start;fill:#ff0000;fill-opacity:1;stroke:none;stroke-width:1px;stroke-linecap:butt;stroke-linejoin:miter;stroke-opacity:1"
       x="2357"
       y="1103.3622"
       id="text3469"
       sodipodi:linespacing="100%"><tspan
         sodipodi:role="line"
         x="2357"
         y="1103.3622"
         id="tspan3473">&lt;-Webcam</tspan></text>
    <text
       xml:space="preserve"
       style="font-style:normal;font-variant:normal;font-weight:normal;font-stretch:normal;font-size:20px;line-height:100%;font-family:Ubuntu;-inkscape-font-specification:'Ubuntu, Normal';text-align:start;letter-spacing:-2.40999985px;word-spacing:0px;writing-mode:lr-tb;text-anchor:start;fill:#00ff00;fill-opacity:1;stroke:none;stroke-width:1px;stroke-linecap:butt;stroke-linejoin:miter;stroke-opacity:1"
       x="1968.1611"
       y="1551.3622"
       id="text3483"
       sodipodi:linespacing="100%"><tspan
         style="text-align:center;text-anchor:middle"
         id="tspan3485"
         sodipodi:role="line"
         x="1966.9562"
         y="1551.3622">^^^^^</tspan><tspan
         id="tspan3487"
         style="text-align:center;text-anchor:middle"
         sodipodi:role="line"
         x="1966.9562"
         y="1571.3622">&lt; LED &gt;</tspan></text>
    <text
       xml:space="preserve"
       style="font-style:normal;font-variant:normal;font-weight:normal;font-stretch:normal;font-size:20px;line-height:100%;font-family:Ubuntu;-inkscape-font-specification:'Ubuntu, Normal';text-align:start;letter-spacing:-2.40999985px;word-spacing:0px;writing-mode:lr-tb;text-anchor:start;fill:#000000;fill-opacity:1;stroke:none;stroke-width:1px;stroke-linecap:butt;stroke-linejoin:miter;stroke-opacity:1"
       x="2164"
       y="989.36218"
       id="text3489"
       sodipodi:linespacing="100%"><tspan
         sodipodi:role="line"
         id="tspan3491"
         x="2164"
         y="989.36218"
         style="font-size:12.5px">minimal Abstand Brennweite 10cm</tspan></text>
    <text
       xml:space="preserve"
       style="font-style:normal;font-variant:normal;font-weight:normal;font-stretch:normal;font-size:20px;line-height:100%;font-family:Ubuntu;-inkscape-font-specification:'Ubuntu, Normal';text-align:start;letter-spacing:-2.40999985px;word-spacing:0px;writing-mode:lr-tb;text-anchor:start;fill:#00ff00;fill-opacity:1;stroke:none;stroke-width:1px;stroke-linecap:butt;stroke-linejoin:miter;stroke-opacity:1"
       x="513.62512"
       y="2068.2292"
       id="text3493"
       sodipodi:linespacing="100%"
       transform="matrix(0.70710678,-0.70710678,0.70710678,0.70710678,0,0)"><tspan
         sodipodi:role="line"
         id="tspan3495"
         x="513.62512"
         y="2068.2292">Petrischale</tspan></text>
  </g>
</svg>
