<?xml version="1.0" encoding="UTF-8" standalone="no"?>
<!-- Created with Inkscape (http://www.inkscape.org/) -->

<svg
   xmlns:dc="http://purl.org/dc/elements/1.1/"
   xmlns:cc="http://creativecommons.org/ns#"
   xmlns:rdf="http://www.w3.org/1999/02/22-rdf-syntax-ns#"
   xmlns:svg="http://www.w3.org/2000/svg"
   xmlns="http://www.w3.org/2000/svg"
   xmlns:xlink="http://www.w3.org/1999/xlink"
   xmlns:sodipodi="http://sodipodi.sourceforge.net/DTD/sodipodi-0.dtd"
   xmlns:inkscape="http://www.inkscape.org/namespaces/inkscape"
   width="33.092403mm"
   height="33.092453mm"
   viewBox="0 0 117.25655 117.25672"
   id="svg3411"
   version="1.1"
   inkscape:version="0.91 r13725"
   sodipodi:docname="r3logo.svg">
  <defs
     id="defs3413">
    <path
       id="path4916"
       d="m 236.6209,61.503968 c 1.33881,-0.40036 2.58122,-0.787896 3.75277,-1.18839 1.33881,-0.40036 2.94381,-0.73373 4.78479,-1.00075 2.00826,-0.400358 3.66476,-0.679565 5.0037,-0.813109 1.33879,-0.266883 3.19227,-0.546087 5.53535,-0.813109 2.34294,-0.400357 4.08232,-0.648288 5.25388,-0.781835 1.3388,-0.133404 3.27509,-0.327173 5.78553,-0.594195 2.67766,-0.26688 4.49987,-0.491921 5.50407,-0.625469"
       style="fill:none;fill-opacity:1;stroke:none"
       inkscape:connector-curvature="0"
       sodipodi:nodetypes="cccccccc" />
  </defs>
  <sodipodi:namedview
     id="base"
     pagecolor="#ffffff"
     bordercolor="#666666"
     borderopacity="1.0"
     inkscape:pageopacity="0.0"
     inkscape:pageshadow="2"
     inkscape:zoom="2.8"
     inkscape:cx="67.387309"
     inkscape:cy="28.618202"
     inkscape:document-units="px"
     inkscape:current-layer="layer1"
     showgrid="false"
     fit-margin-top="0"
     fit-margin-left="0"
     fit-margin-right="0"
     fit-margin-bottom="0"
     inkscape:window-width="1920"
     inkscape:window-height="1015"
     inkscape:window-x="0"
     inkscape:window-y="0"
     inkscape:window-maximized="1" />
  <metadata
     id="metadata3416">
    <rdf:RDF>
      <cc:Work
         rdf:about="">
        <dc:format>image/svg+xml</dc:format>
        <dc:type
           rdf:resource="http://purl.org/dc/dcmitype/StillImage" />
        <dc:title></dc:title>
      </cc:Work>
    </rdf:RDF>
  </metadata>
  <g
     inkscape:label="Ebene 1"
     inkscape:groupmode="layer"
     id="layer1"
     transform="translate(-309.94316,-259.44813)">
    <g
       transform="matrix(0.66184779,0,0,0.66184779,309.94316,259.44813)"
       id="g7682">
      <text
         xml:space="preserve"
         style="font-style:normal;font-weight:normal;font-size:18.78186989px;line-height:125%;font-family:Sans;letter-spacing:0px;word-spacing:0px;fill:#000000;fill-opacity:1;stroke:none"
         x="142.1918"
         y="147.7791"
         id="text3529"
         sodipodi:linespacing="125%"><tspan
           sodipodi:role="line"
           id="tspan3531"
           x="142.1918"
           y="147.7791"
           style="font-style:normal;font-variant:normal;font-weight:normal;font-stretch:normal;font-family:'Trebuchet MS';-inkscape-font-specification:'Trebuchet MS'" /></text>
      <text
         xml:space="preserve"
         style="font-style:normal;font-weight:normal;font-size:28px;line-height:125%;font-family:Sans;letter-spacing:0px;word-spacing:0px;fill:#000000;fill-opacity:1;stroke:none"
         x="153.06082"
         y="146.79778"
         id="text3537"
         sodipodi:linespacing="125%"><tspan
           sodipodi:role="line"
           id="tspan3539"
           x="153.06082"
           y="146.79778" /></text>
      <g
         id="g3228"
         transform="translate(132.01714,-24.292985)">
        <path
           sodipodi:nodetypes="csssccccsc"
           style="fill:#ffffff;fill-opacity:1;stroke:none"
           d="m -44.577586,24.294407 c -48.372435,0.613407 -87.439554,40.081831 -87.439554,88.597763 0,48.89793 39.69863,88.5665 88.597759,88.5665 48.899141,0 88.564561,-39.66857 88.564561,-88.5665 0,-0.38203 0.007,-0.77537 0,-1.15625 l 0,-69.802822 C 44.95115,32.209674 37.04099,24.367657 27.28773,24.294407 l -70.707111,0 -0.408203,0 c -0.245921,0 -0.503712,-0.0032 -0.750002,0 z"
           id="path3379"
           inkscape:connector-curvature="0" />
        <path
           inkscape:connector-curvature="0"
           id="path4874"
           d="m -44.551482,26.317031 c -47.267924,0.599401 -85.443008,39.166623 -85.443008,86.574759 0,47.78142 38.792175,86.54422 86.574766,86.54422 47.782604,0 86.542324,-38.7628 86.542314,-86.54422 0,-0.3733 0.007,-0.75766 0,-1.12985 l 0,-68.20897 C 42.93299,34.051564 35.20345,26.388608 25.6729,26.317031 l -69.092624,0 -0.398883,0 c -0.240305,0 -0.492211,-0.0031 -0.732875,0 z m 1.559269,19.802912 c 16.118203,0.136171 32.070463,6.348685 44.157673,16.989739 18.09312,15.637236 25.71144,41.610398 20.59686,64.817508 -4.47035,21.60984 -21.16684,39.62575 -41.65177,47.33728 -21.258333,8.579 -46.809212,4.47506 -64.693461,-9.71823 -19.850859,-15.16921 -29.463599,-42.09792 -24.417739,-66.497019 5.99606,-29.564297 34.217883,-52.758172 64.449168,-52.898741 0.520204,-0.0083 1.039335,-0.03492 1.559269,-0.03054 z"
           style="fill:#761407;fill-opacity:1;stroke:none" />
        <path
           inkscape:connector-curvature="0"
           id="path4872"
           d="m 21.42581,33.712507 c 2.1124,2.7e-5 3.9313,0.453453 5.34784,1.436291 1.4333,0.965289 2.26136,2.520743 2.26137,4.247754 -10e-6,1.021805 -0.27062,2.048709 -0.73341,3.055937 -0.437,0.925372 -0.92144,1.721574 -1.46684,2.353073 -0.39935,0.441366 -0.81908,0.891516 -1.25292,1.314053 1.21707,0.683378 2.24616,1.544952 3.02535,2.628107 l 0.0306,0 c 0.004,0.0066 -0.004,0.05447 0,0.06112 0.92098,1.239047 1.37515,2.717893 1.37516,4.308872 -10e-6,2.93901 -1.21933,5.412269 -3.51429,7.059217 -2.20808,1.603428 -4.92644,2.465831 -8.03704,2.566987 0,0 -0.0257,-9.47e-4 -0.0306,0 -0.76782,-2e-6 -1.52507,-0.387663 -2.04746,-0.947341 -0.41309,-0.444851 -0.79454,-0.928419 -0.79454,-1.650206 0,-0.332495 0.0136,-0.665372 0.0917,-0.9779 l 0.24448,-0.855663 0.85565,-0.03056 c 2.68598,-0.09028 4.58375,-0.674809 5.71455,-1.558527 1.13082,-0.883718 1.65019,-2.054374 1.65019,-3.911601 -1e-5,-1.814979 -0.72048,-2.888434 -2.6892,-3.758804 -0.51109,-0.229979 -0.90941,-0.437712 -1.25292,-0.672306 -0.34351,-0.234593 -0.80104,-0.432019 -0.88621,-1.283494 l -0.0306,-0.397272 0.21392,-0.336153 c 0.28708,-0.446557 0.74217,-1.025086 1.46684,-1.894682 l 0,-0.03056 c 0.69534,-0.807478 1.24083,-1.566942 1.61963,-2.261394 l 0,-0.03056 c 0.35786,-0.621547 0.51949,-1.214256 0.5195,-1.894682 -1e-5,-0.606725 -0.15124,-0.945905 -0.55006,-1.314054 -0.34444,-0.317918 -0.89191,-0.580609 -1.89467,-0.580628 -0.17556,9e-6 -0.82791,0.107696 -1.74186,0.336154 -0.48252,0.120638 -0.86702,0.21107 -1.16125,0.275034 -0.29423,0.06397 -0.36795,0.122299 -0.76397,0.122237 -0.7269,1.14e-4 -0.99672,-0.25748 -1.37516,-0.519509 l -0.0306,-0.03056 -0.0306,-0.03056 c -0.43264,-0.360477 -0.85566,-0.88404 -0.85566,-1.589088 0,-0.78619 0.50246,-1.275074 0.94733,-1.589087 0.44487,-0.314013 0.95954,-0.579178 1.61964,-0.825104 1.36128,-0.52353 2.74814,-0.794515 4.15603,-0.794543 z"
           style="fill:#ffffff;fill-opacity:1;stroke:none" />
        <path
           id="path3021"
           d="m -14.14497,70.93383 c -6.05094,8.6e-5 -13.31533,1.7653 -21.819195,5.286773 -8.503957,3.521638 -13.259355,5.28685 -14.240534,5.286772 -0.163584,-0.912918 -0.244513,-2.488787 -0.244473,-4.706143 -4e-5,-2.869336 -4.077385,-4.308788 -12.254195,-4.308873 -3.761375,8.5e-5 -4.886147,0.926015 -5.867346,4.186635 -0.781362,2.637629 -0.654979,4.653613 -0.763978,7.059217 -0.163553,5.825885 -0.0917,5.214709 -0.09168,7.8232 0,0.04072 -6.5e-5,0.02334 0,0.06112 -0.0087,0.03223 -0.01899,0.04842 -0.03056,0.122238 l 0.122235,45.136191 c 0.0038,12.28605 0.460283,18.82473 2.414169,19.8636 0.981199,0.52171 0.77619,1.06957 6.172936,1.06957 5.560219,0 8.990079,-0.87142 10.298414,-2.56698 0.654106,-1.04341 0.977849,-2.07363 0.977891,-3.11705 0.163487,-1.04341 0.244429,-2.34646 0.244472,-3.9116 -4.3e-5,-1.69555 -4.3e-5,-2.80925 0,-3.33097 l 0,-2.9337 -0.488945,-33.24861 0,-12.712697 c 0.981178,-1.304218 2.792323,-2.364985 5.40896,-3.147617 1.308242,-0.391219 2.522285,-0.769906 3.667086,-1.161256 1.308241,-0.391219 2.876595,-0.716977 4.675541,-0.9779 1.962407,-0.391217 3.581085,-0.664049 4.889452,-0.794544 1.30822,-0.26079 3.11938,-0.533619 5.40896,-0.794544 2.28945,-0.391216 3.98911,-0.633486 5.13392,-0.763984 1.30824,-0.130358 3.20032,-0.319703 5.65344,-0.580628 2.61652,-0.260787 4.39712,-0.480689 5.3784,-0.611188 1.1447,-1.825922 1.74178,-4.484923 1.74187,-8.006557 -9e-5,-3.52148 -0.51626,-5.748863 -1.4974,-6.661945 -0.81777,-1.043339 -2.43649,-1.558443 -4.88945,-1.558529 z"
           style="fill:#761407;fill-opacity:1;stroke:none;stroke-width:2.65748024;stroke-miterlimit:4;stroke-dasharray:none;stroke-opacity:1"
           inkscape:connector-curvature="0" />
        <g
           transform="matrix(1.0566649,0,0,1.0933012,-296.8824,32.138824)"
           id="g4933">
          <path
             id="path3406"
             d="m 236.6209,61.503968 c 1.33881,-0.40036 2.58122,-0.787896 3.75277,-1.18839 1.33881,-0.40036 2.94381,-0.73373 4.78479,-1.00075 2.00826,-0.400358 3.66476,-0.679565 5.0037,-0.813109 1.33879,-0.266883 3.19227,-0.546087 5.53535,-0.813109 2.34294,-0.400357 4.08232,-0.648288 5.25388,-0.781835 1.3388,-0.133404 3.27509,-0.327173 5.78553,-0.594195 2.67766,-0.26688 4.49987,-0.491921 5.50407,-0.625469"
             style="fill:none;fill-opacity:1;stroke:none"
             inkscape:connector-curvature="0"
             sodipodi:nodetypes="cccccccc" />
          <text
             sodipodi:linespacing="125%"
             id="text4918"
             style="font-style:normal;font-variant:normal;font-weight:normal;font-stretch:normal;font-size:5.73914146px;line-height:125%;font-family:Dingbats;-inkscape-font-specification:Dingbats;letter-spacing:0px;word-spacing:0px;fill:#222b00;fill-opacity:1;stroke:none"
             xml:space="preserve"><textPath
               xlink:href="#path4916"
               id="textPath4929"><tspan
   id="tspan4920"
   style="font-style:normal;font-variant:normal;font-weight:normal;font-stretch:normal;font-family:Cagliostro;-inkscape-font-specification:Cagliostro;fill:#222b00;fill-opacity:1">realraum.at</tspan></textPath></text>
        </g>
      </g>
    </g>
  </g>
</svg>
